<svg width="36" height="36" viewBox="0 0 36 36" fill="none" xmlns="http://www.w3.org/2000/svg">
<g clip-path="url(#clip0_1063_4066)">
<path d="M18 0C14.4399 0 10.9598 1.05568 7.99974 3.03355C5.03966 5.01141 2.73255 7.82263 1.37018 11.1117C0.00779915 14.4008 -0.348661 18.02 0.345873 21.5116C1.04041 25.0033 2.75474 28.2106 5.27209 30.7279C7.78943 33.2453 10.9967 34.9596 14.4884 35.6541C17.98 36.3487 21.5992 35.9922 24.8883 34.6298C28.1774 33.2675 30.9886 30.9603 32.9665 28.0003C34.9443 25.0402 36 21.5601 36 18C35.9946 13.2278 34.0965 8.65253 30.722 5.27804C27.3475 1.90356 22.7722 0.00539936 18 0V0ZM18 33.6C14.9146 33.6 11.8985 32.6851 9.33311 30.9709C6.76771 29.2568 4.76821 26.8204 3.58749 23.9699C2.40676 21.1193 2.09783 17.9827 2.69976 14.9566C3.30169 11.9305 4.78744 9.15083 6.96914 6.96913C9.15084 4.78744 11.9305 3.30168 14.9566 2.69975C17.9827 2.09782 21.1193 2.40675 23.9699 3.58748C26.8204 4.76821 29.2568 6.7677 30.9709 9.3331C32.6851 11.8985 33.6 14.9146 33.6 18C33.5952 22.1359 31.9501 26.1011 29.0256 29.0256C26.1011 31.9501 22.1359 33.5952 18 33.6V33.6Z" fill="#11535C"/>
<path d="M24.5651 20.5416C24.2844 20.3918 23.9557 20.3595 23.6512 20.452C23.3467 20.5445 23.0915 20.7541 22.9415 21.0348C22.4639 21.9305 21.7518 22.6795 20.8814 23.2017C20.011 23.724 19.015 23.9999 17.9999 23.9999C16.9849 23.9999 15.9889 23.724 15.1185 23.2017C14.2481 22.6795 13.536 21.9305 13.0583 21.0348C12.9855 20.8933 12.8853 20.7677 12.7635 20.6653C12.6417 20.5629 12.5007 20.4857 12.3488 20.4383C12.1969 20.3909 12.0371 20.3742 11.8787 20.3891C11.7202 20.404 11.5664 20.4503 11.426 20.5253C11.2856 20.6002 11.1616 20.7024 11.061 20.8257C10.9605 20.9491 10.8855 21.0912 10.8404 21.2438C10.7953 21.3964 10.7811 21.5565 10.7984 21.7147C10.8158 21.8729 10.8644 22.026 10.9415 22.1652C11.6237 23.4446 12.6409 24.5145 13.8841 25.2605C15.1274 26.0065 16.55 26.4006 17.9999 26.4006C19.4498 26.4006 20.8725 26.0065 22.1157 25.2605C23.359 24.5145 24.3761 23.4446 25.0583 22.1652C25.2082 21.8845 25.2404 21.5558 25.1479 21.2513C25.0554 20.9468 24.8458 20.6915 24.5651 20.5416Z" fill="#11535C"/>
<mask id="mask0_1063_4066" style="mask-type:alpha" maskUnits="userSpaceOnUse" x="7" y="8" width="8" height="8">
<rect x="7" y="8" width="8" height="8" fill="#D9D9D9"/>
</mask>
<g mask="url(#mask0_1063_4066)">
<path d="M9.76677 14.7084C9.63899 14.8084 9.50843 14.8111 9.3751 14.7167C9.24177 14.6223 9.19732 14.4973 9.24177 14.3417L9.71677 12.8L8.50843 11.9417C8.3751 11.8473 8.33488 11.7223 8.38777 11.5667C8.44043 11.4111 8.54732 11.3334 8.70843 11.3334H10.2001L10.6834 9.73337C10.7112 9.65559 10.7543 9.59581 10.8128 9.55403C10.871 9.51248 10.9334 9.4917 11.0001 9.4917C11.0668 9.4917 11.1292 9.51248 11.1874 9.55403C11.2459 9.59581 11.289 9.65559 11.3168 9.73337L11.8001 11.3334H13.2918C13.4529 11.3334 13.5599 11.4111 13.6128 11.5667C13.6654 11.7223 13.6251 11.8473 13.4918 11.9417L12.2834 12.8L12.7584 14.3417C12.8029 14.4973 12.7584 14.6223 12.6251 14.7167C12.4918 14.8111 12.3612 14.8084 12.2334 14.7084L11.0001 13.7667L9.76677 14.7084Z" fill="#11535C"/>
</g>
<mask id="mask1_1063_4066" style="mask-type:alpha" maskUnits="userSpaceOnUse" x="21" y="8" width="8" height="8">
<rect x="21" y="8" width="8" height="8" fill="#D9D9D9"/>
</mask>
<g mask="url(#mask1_1063_4066)">
<path d="M23.7668 14.7084C23.639 14.8084 23.5084 14.8111 23.3751 14.7167C23.2418 14.6223 23.1973 14.4973 23.2418 14.3417L23.7168 12.8L22.5084 11.9417C22.3751 11.8473 22.3349 11.7223 22.3878 11.5667C22.4404 11.4111 22.5473 11.3334 22.7084 11.3334H24.2001L24.6834 9.73337C24.7112 9.65559 24.7543 9.59581 24.8128 9.55403C24.871 9.51248 24.9334 9.4917 25.0001 9.4917C25.0668 9.4917 25.1292 9.51248 25.1874 9.55403C25.2459 9.59581 25.289 9.65559 25.3168 9.73337L25.8001 11.3334H27.2918C27.4529 11.3334 27.5599 11.4111 27.6128 11.5667C27.6654 11.7223 27.6251 11.8473 27.4918 11.9417L26.2834 12.8L26.7584 14.3417C26.8029 14.4973 26.7584 14.6223 26.6251 14.7167C26.4918 14.8111 26.3612 14.8084 26.2334 14.7084L25.0001 13.7667L23.7668 14.7084Z" fill="#11535C"/>
</g>
</g>
<defs>
<clipPath id="clip0_1063_4066">
<rect width="36" height="36" fill="white"/>
</clipPath>
</defs>
</svg>
